<svg xmlns="http://www.w3.org/2000/svg" xmlns:xlink="http://www.w3.org/1999/xlink" id="Layer_1" width="100%" x="0" y="0" enable-background="new 0 0 831 109" version="1.1" viewBox="0 0 831 109" xml:space="preserve"><path fill="#FEFEFE" stroke="none" d="M832.000000,75.000000 C832.000000,86.663689 832.000000,98.327370 832.000000,109.993294 C555.073730,109.995529 278.147491,109.995529 1.110617,109.995529 C1.110617,73.749992 1.110617,37.499535 1.110617,1.000000 C246.020844,1.000000 491.041748,1.000000 736.727600,1.389960 C758.266907,1.849746 779.141296,1.928710 800.015747,1.947547 C800.676880,1.948144 801.338562,1.329810 802.000000,1.000006 C811.948242,1.000000 821.896484,1.000000 832.000000,1.000000 C832.000000,19.020634 832.000000,37.041660 831.635864,55.526146 C830.281738,54.826889 829.291809,53.664169 828.826599,53.117744 C826.706665,54.497021 824.115295,55.544025 822.432190,57.410233 C818.847717,61.384750 820.800110,65.952309 822.133850,70.196854 C823.018738,73.013130 829.198059,75.778244 832.000000,75.000000 M512.906982,52.075912 C524.604736,51.716908 536.302490,51.357899 548.351196,51.249767 C548.896057,51.151112 549.440857,51.052456 550.913940,51.108025 C561.274719,50.743259 571.635498,50.378490 582.456116,50.255478 C583.295532,50.142536 584.135010,50.029591 585.904236,50.064114 C601.601807,49.379803 617.299377,48.695496 633.465393,48.232571 C634.302979,48.131477 635.140625,48.030380 636.892273,48.036575 C642.262817,47.686058 647.633423,47.335541 653.471130,47.203407 C654.302063,47.095928 655.132996,46.988445 656.858154,47.017960 C661.238037,46.681335 665.617981,46.344711 670.356506,46.240055 C670.897217,46.136662 671.437866,46.033268 672.871643,46.062901 C677.242737,45.727074 681.613831,45.391247 686.452515,45.290451 C687.294189,45.169388 688.135925,45.048328 689.901611,45.042412 C704.597107,44.376137 719.292542,43.709862 734.618103,43.296879 C736.405518,43.176788 738.192871,43.056698 740.655884,43.082508 C741.110657,43.028763 741.565430,42.975018 742.364380,43.169674 C742.900146,43.081913 743.435974,42.994156 744.901917,43.054649 C751.270752,43.025829 757.639587,42.997009 764.354004,43.231956 C764.905579,43.164017 765.457214,43.096077 766.883057,43.211384 C775.413879,43.561371 783.944763,43.911358 792.842163,44.804390 C793.528198,44.765869 794.214294,44.727345 795.856567,44.809841 C797.283264,44.809841 798.709961,44.809841 800.136658,44.809841 C800.211792,44.083931 800.286926,43.358021 800.362061,42.632107 C797.230774,42.130108 794.099487,41.628109 790.510925,40.832340 C789.983032,40.846046 789.455200,40.859756 788.128418,40.480629 C782.066345,39.930393 775.984497,39.538696 769.948242,38.782429 C764.608582,38.113438 759.319885,37.038498 753.365051,35.882175 C752.911194,35.905266 752.457397,35.928356 751.236084,35.657539 C744.820557,35.116535 738.404968,34.575531 731.532532,33.742290 C731.010193,33.784512 730.487793,33.826736 729.113586,33.500900 C674.305847,28.997019 619.392456,26.743584 564.414307,26.289114 C479.110229,25.583958 393.864838,28.094839 308.665314,32.021988 C279.897003,33.348022 251.174072,35.722553 222.446457,37.836002 C210.548386,38.711327 198.692444,40.158958 186.216614,41.406380 C187.411728,39.660343 188.227905,38.467934 189.091049,37.206898 C183.243103,37.206898 177.740158,36.861950 172.291656,37.260860 C123.815399,40.810043 76.909767,51.388027 31.667997,69.187927 C24.089069,72.169769 16.541630,75.316666 9.298094,79.011597 C7.253911,80.054321 5.096742,83.392670 5.234397,85.533936 C5.392780,87.997627 7.697642,90.673126 9.729464,92.538643 C10.998713,93.703995 13.464889,93.738747 15.429313,93.946465 C30.628983,95.553635 45.632767,93.885117 60.394661,90.419525 C141.561096,71.364410 224.010773,62.200150 307.130371,58.182625 C332.411865,56.960659 357.708649,56.055756 383.351868,55.257160 C383.898376,55.162186 384.444916,55.067211 385.920197,55.119667 C397.614929,54.740997 409.309662,54.362328 421.542755,54.216072 C422.689362,54.125389 423.835968,54.034706 425.915314,54.067188 C437.276062,53.714493 448.636810,53.361797 460.583313,53.264160 C462.049835,53.157780 463.516327,53.051399 465.912018,53.096066 C479.943542,52.722466 493.975067,52.348869 508.547546,52.191956 C509.690765,52.103359 510.833954,52.014759 512.906982,52.075912 M803.340637,46.006432 C804.918213,45.883877 806.495850,45.761322 808.073425,45.638767 C808.061951,45.104191 808.050415,44.569614 808.038879,44.035038 C805.751099,43.649517 803.463318,43.264000 799.932434,42.669006 C801.301880,44.472008 801.838013,45.177853 803.340637,46.006432 z" opacity="1"/><path fill="#47704C" stroke="none" d="M832.000000,74.531731 C829.198059,75.778244 823.018738,73.013130 822.133850,70.196854 C820.800110,65.952309 818.847717,61.384750 822.432190,57.410233 C824.115295,55.544025 826.706665,54.497021 828.826599,53.117744 C829.291809,53.664169 830.281738,54.826889 831.635864,55.994804 C832.000000,62.021152 832.000000,68.042305 832.000000,74.531731 z" opacity="1"/><path fill="#47704C" stroke="none" d="M801.531372,1.000006 C801.338562,1.329810 800.676880,1.948144 800.015747,1.947547 C779.141296,1.928710 758.266907,1.849746 737.196289,1.389960 C758.354248,1.000000 779.708435,1.000000 801.531372,1.000006 z" opacity="1"/><path fill="#050505" stroke="none" d="M754.008667,36.142780 C759.319885,37.038498 764.608582,38.113438 769.948242,38.782429 C775.984497,39.538696 782.066345,39.930393 788.619385,40.893425 C789.729614,41.246181 790.348938,41.186146 790.968201,41.126114 C794.099487,41.628109 797.230774,42.130108 800.362061,42.632107 C800.286926,43.358021 800.211792,44.083931 800.136658,44.809841 C798.709961,44.809841 797.283264,44.809841 795.152222,44.496986 C793.790405,44.209873 793.132996,44.235607 792.475586,44.261345 C783.944763,43.911358 775.413879,43.561371 766.304016,42.895714 C765.152771,42.709427 764.580627,42.838810 764.008423,42.968193 C757.639587,42.997009 751.270752,43.025829 744.295166,42.766708 C743.132324,42.626266 742.576233,42.773769 742.020203,42.921272 C741.565430,42.975018 741.110657,43.028763 740.061523,42.749863 C737.640808,42.626007 735.814392,42.834797 733.988037,43.043587 C719.292542,43.709862 704.597107,44.376137 689.244629,44.750534 C687.720093,44.657574 686.852478,44.856495 685.984924,45.055420 C681.613831,45.391247 677.242737,45.727074 672.274902,45.782433 C671.118103,45.670666 670.557983,45.839371 669.997864,46.008080 C665.617981,46.344711 661.238037,46.681335 656.227539,46.709900 C654.732605,46.596233 653.868286,46.790630 653.003967,46.985027 C647.633423,47.335541 642.262817,47.686058 636.244873,47.748169 C634.730652,47.643570 633.863770,47.827377 632.996948,48.011185 C617.299377,48.695496 601.601807,49.379803 585.249146,49.754253 C583.728149,49.634171 582.862183,49.823944 581.996277,50.013718 C571.635498,50.378490 561.274719,50.743259 550.301270,50.814999 C549.125793,50.680946 548.563049,50.839920 548.000244,50.998894 C536.302490,51.357899 524.604736,51.716908 512.226868,51.754456 C510.366669,51.613758 509.186646,51.794521 508.006592,51.975281 C493.975067,52.348869 479.943542,52.722466 465.212036,52.761948 C463.007233,52.621590 461.502380,52.815350 459.997559,53.009102 C448.636810,53.361797 437.276062,53.714493 425.233337,53.757744 C423.369019,53.626755 422.186707,53.805206 421.004395,53.983658 C409.309662,54.362328 397.614929,54.740997 385.306610,54.828960 C384.128174,54.694050 383.563293,54.849842 382.998444,55.005638 C357.708649,56.055756 332.411865,56.960659 307.130371,58.182625 C224.010773,62.200150 141.561096,71.364410 60.394661,90.419525 C45.632767,93.885117 30.628983,95.553635 15.429313,93.946465 C13.464889,93.738747 10.998713,93.703995 9.729464,92.538643 C7.697642,90.673126 5.392780,87.997627 5.234397,85.533936 C5.096742,83.392670 7.253911,80.054321 9.298094,79.011597 C16.541630,75.316666 24.089069,72.169769 31.667997,69.187927 C76.909767,51.388027 123.815399,40.810043 172.291656,37.260860 C177.740158,36.861950 183.243103,37.206898 189.091049,37.206898 C188.227905,38.467934 187.411728,39.660343 186.216614,41.406380 C198.692444,40.158958 210.548386,38.711327 222.446457,37.836002 C251.174072,35.722553 279.897003,33.348022 308.665314,32.021988 C393.864838,28.094839 479.110229,25.583958 564.414307,26.289114 C619.392456,26.743584 674.305847,28.997019 729.633667,33.903877 C730.765625,34.216076 731.377563,34.125301 731.989441,34.034527 C738.404968,34.575531 744.820557,35.116535 751.654297,36.099754 C752.452881,36.893063 752.833374,37.244160 753.213806,37.595261 C753.478760,37.111103 753.743713,36.626938 754.008667,36.142780 z" opacity="1"/><path fill="#050505" stroke="none" d="M802.857361,45.945065 C801.838013,45.177853 801.301880,44.472008 799.932434,42.669006 C803.463318,43.264000 805.751099,43.649517 808.038879,44.035038 C808.050415,44.569614 808.061951,45.104191 808.073425,45.638767 C806.495850,45.761322 804.918213,45.883877 802.857361,45.945065 z" opacity="1"/><path fill="#202020" stroke="none" d="M734.303101,43.170235 C735.814392,42.834797 737.640808,42.626007 739.723755,42.676914 C738.192871,43.056698 736.405518,43.176788 734.303101,43.170235 z" opacity="1"/><path fill="#202020" stroke="none" d="M460.290436,53.136635 C461.502380,52.815350 463.007233,52.621590 464.747437,52.686424 C463.516327,53.051399 462.049835,53.157780 460.290436,53.136635 z" opacity="1"/><path fill="#202020" stroke="none" d="M421.273560,54.099865 C422.186707,53.805206 423.369019,53.626755 424.766968,53.696159 C423.835968,54.034706 422.689362,54.125389 421.273560,54.099865 z" opacity="1"/><path fill="#202020" stroke="none" d="M508.277069,52.083618 C509.186646,51.794521 510.366669,51.613758 511.761963,51.679581 C510.833954,52.014759 509.690765,52.103359 508.277069,52.083618 z" opacity="1"/><path fill="#202020" stroke="none" d="M633.231201,48.121880 C633.863770,47.827377 634.730652,47.643570 635.787842,47.694523 C635.140625,48.030380 634.302979,48.131477 633.231201,48.121880 z" opacity="1"/><path fill="#202020" stroke="none" d="M582.226196,50.134598 C582.862183,49.823944 583.728149,49.634171 584.784241,49.680519 C584.135010,50.029591 583.295532,50.142536 582.226196,50.134598 z" opacity="1"/><path fill="#202020" stroke="none" d="M653.237549,47.094219 C653.868286,46.790630 654.732605,46.596233 655.780396,46.641399 C655.132996,46.988445 654.302063,47.095928 653.237549,47.094219 z" opacity="1"/><path fill="#202020" stroke="none" d="M686.218750,45.172935 C686.852478,44.856495 687.720093,44.657574 688.782593,44.692959 C688.135925,45.048328 687.294189,45.169388 686.218750,45.172935 z" opacity="1"/><path fill="#202020" stroke="none" d="M670.177185,46.124065 C670.557983,45.839371 671.118103,45.670666 671.828369,45.715916 C671.437866,46.033268 670.897217,46.136662 670.177185,46.124065 z" opacity="1"/><path fill="#202020" stroke="none" d="M790.739563,40.979225 C790.348938,41.186146 789.729614,41.246181 789.018799,41.089844 C789.455200,40.859756 789.983032,40.846046 790.739563,40.979225 z" opacity="1"/><path fill="#202020" stroke="none" d="M792.658875,44.532867 C793.132996,44.235607 793.790405,44.209873 794.674072,44.436478 C794.214294,44.727345 793.528198,44.765869 792.658875,44.532867 z" opacity="1"/><path fill="#202020" stroke="none" d="M548.175720,51.124332 C548.563049,50.839920 549.125793,50.680946 549.837158,50.737885 C549.440857,51.052456 548.896057,51.151112 548.175720,51.124332 z" opacity="1"/><path fill="#202020" stroke="none" d="M764.181213,43.100075 C764.580627,42.838810 765.152771,42.709427 765.866882,42.804092 C765.457214,43.096077 764.905579,43.164017 764.181213,43.100075 z" opacity="1"/><path fill="#121212" stroke="none" d="M753.686890,36.012474 C753.743713,36.626938 753.478760,37.111103 753.213806,37.595261 C752.833374,37.244160 752.452881,36.893063 752.037964,36.246704 C752.457397,35.928356 752.911194,35.905266 753.686890,36.012474 z" opacity="1"/><path fill="#202020" stroke="none" d="M742.192261,43.045471 C742.576233,42.773769 743.132324,42.626266 743.830078,42.692581 C743.435974,42.994156 742.900146,43.081913 742.192261,43.045471 z" opacity="1"/><path fill="#202020" stroke="none" d="M383.175171,55.131401 C383.563293,54.849842 384.128174,54.694050 384.842224,54.755245 C384.444916,55.067211 383.898376,55.162186 383.175171,55.131401 z" opacity="1"/><path fill="#121212" stroke="none" d="M731.760986,33.888405 C731.377563,34.125301 730.765625,34.216076 730.059570,34.087906 C730.487793,33.826736 731.010193,33.784512 731.760986,33.888405 z" opacity="1"/></svg>